<svg xmlns="http://www.w3.org/2000/svg" width="1440" height="1600" viewBox="0 0 1440 1600" fill="none">
<defs>
<radialGradient id="bg" cx="0" cy="0" r="1" gradientTransform="translate(1150 80) rotate(120) scale(1600 1300)" gradientUnits="userSpaceOnUse"><stop stop-color="#073563"/><stop offset=".5" stop-color="#041526"/><stop offset="1" stop-color="#01050a"/></radialGradient>
<linearGradient id="ribbon" x1="-100" y1="0" x2="1200" y2="1000" gradientUnits="userSpaceOnUse"><stop stop-color="#009ade"/><stop offset=".35" stop-color="#0064b1"/><stop offset=".7" stop-color="#00375f"/><stop offset="1" stop-color="#00101e"/></linearGradient>
<linearGradient id="edge" x1="100" y1="0" x2="1300" y2="1100" gradientUnits="userSpaceOnUse"><stop stop-color="#43caff" stop-opacity=".5"/><stop offset=".5" stop-color="#088ede" stop-opacity=".2"/><stop offset="1" stop-color="#02223f" stop-opacity="0"/></linearGradient>
<linearGradient id="fade" x2="0" y2="1600" gradientUnits="userSpaceOnUse"><stop stop-color="#01050a" stop-opacity="0"/><stop offset="1" stop-color="#01050a" stop-opacity=".75"/></linearGradient>
</defs>
<path fill="url(#bg)" d="M0 0h1440v1600H0z"/>
<path d="M-350-270C330-180 10 630 910 660S1600 1010 1720 1260" stroke="#000710" stroke-width="245"/>
<path d="M-350-300C330-210 10 600 910 630S1600 980 1720 1230" stroke="url(#ribbon)" stroke-width="170"/>
<path d="M-350-385C330-295 10 515 910 545S1600 895 1720 1145" stroke="url(#edge)" stroke-width="2"/>
<path d="M-350-310C330-220 10 590 910 620S1600 970 1720 1220" stroke="#159ae2" stroke-opacity=".08" stroke-width="32"/>
<path d="M-400 580C70 580 150 1150 750 1130S1330 1290 1680 1610" stroke="#063259" stroke-opacity=".48" stroke-width="135"/>
<path d="M-400 514C70 514 150 1084 750 1064S1330 1224 1680 1544" stroke="url(#edge)" stroke-width="1.5"/>
<path fill="url(#fade)" d="M0 0h1440v1600H0z"/>
</svg>